<?xml version="1.0" encoding="UTF-8" standalone="no"?>
<!-- Created with Inkscape (http://www.inkscape.org/) -->

<svg
   version="1.1"
   id="svg1"
   width="468.11429"
   height="468.11429"
   viewBox="0 0 468.11429 468.11429"
   sodipodi:docname="github-icon-white.svg"
   inkscape:version="1.3.2 (091e20e, 2023-11-25, custom)"
   xmlns:inkscape="http://www.inkscape.org/namespaces/inkscape"
   xmlns:sodipodi="http://sodipodi.sourceforge.net/DTD/sodipodi-0.dtd"
   xmlns="http://www.w3.org/2000/svg"
   xmlns:svg="http://www.w3.org/2000/svg">
  <defs
     id="defs1" />
  <sodipodi:namedview
     id="namedview1"
     pagecolor="#ffffff"
     bordercolor="#000000"
     borderopacity="0.25"
     inkscape:showpageshadow="2"
     inkscape:pageopacity="0.0"
     inkscape:pagecheckerboard="true"
     inkscape:deskcolor="#d1d1d1"
     inkscape:zoom="1.2614441"
     inkscape:cx="156.96296"
     inkscape:cy="294.50374"
     inkscape:window-width="3440"
     inkscape:window-height="1377"
     inkscape:window-x="-8"
     inkscape:window-y="-8"
     inkscape:window-maximized="1"
     inkscape:current-layer="g1" />
  <g
     inkscape:groupmode="layer"
     inkscape:label="Image"
     id="g1">
    <path
       style="fill:#fefefe"
       d="m 147.65714,460.0604 c -5.53142,-2.16609 -13.25124,-5.42346 -17.15515,-7.23858 C 77.240817,428.058 32.056537,378.0598 11.398887,321.02949 5.2464369,304.04422 2.6695069,292.22723 1.5296569,275.77235 0.31246687,258.20089 0.17677687,224.36219 1.2473669,205.37235 3.7874869,160.31616 29.326107,108.29462 67.328157,70.767422 104.22837,34.328272 148.54943,12.605772 201.6,4.9585022 c 11.00756,-1.58675 53.90672,-1.58675 64.91429,0 53.06722,7.6496698 97.48259,29.4241498 134.24438,65.8128198 30.89769,30.584098 53.71491,70.866608 63.03614,111.286738 2.76761,12.00135 3.81631,27.78462 3.82717,57.6 0.011,30.26278 -1.43773,48.74093 -4.83859,61.71429 -10.41485,39.7298 -31.74282,76.47159 -61.83825,106.52907 -23.96375,23.93352 -49.75086,40.53276 -81.75484,52.62583 -15.70326,5.93366 -24.65572,4.85261 -28.10109,-3.39333 -1.00167,-2.39734 -1.26064,-10.70708 -1.26064,-40.45178 0,-41.00105 -0.50651,-46.54531 -5.21216,-57.05211 -1.40068,-3.12744 -4.29809,-7.84044 -6.43869,-10.47334 -2.1406,-2.63289 -3.892,-5.60791 -3.892,-6.61115 0,-2.03835 0.5409,-2.21527 11.42857,-3.73806 21.28188,-2.97658 38.18587,-9.05988 54.4,-19.57712 23.77946,-15.42447 36.6999,-40.66722 40.28398,-78.70309 2.45952,-26.10154 -3.46741,-48.41544 -17.78038,-66.94016 -5.63733,-7.29619 -6.20333,-9.74889 -3.81306,-16.52362 2.72565,-7.72531 3.65584,-17.86771 2.46835,-26.91368 -1.24166,-9.45862 -5.0953,-23.28305 -7.05471,-25.30786 -3.89506,-4.02507 -31.25494,6.13627 -53.03806,19.69808 -3.56376,2.21874 -7.60734,4.03232 -8.99053,4.03232 -1.38258,0 -5.66805,-0.79031 -9.52326,-1.75624 -30.10683,-7.54333 -67.11212,-7.54333 -97.21895,0 -3.85521,0.96593 -8.14068,1.75624 -9.52326,1.75624 -1.38355,0 -5.42584,-1.81348 -8.99053,-4.03338 -19.28003,-12.00661 -47.88506,-22.9448 -52.46852,-20.06328 -2.10985,1.32642 -4.33531,7.62539 -6.65365,18.8326 -2.19121,10.59267 -2.00235,21.20064 0.53323,29.94977 0.80153,2.76572 1.68847,6.90872 1.97098,9.20668 0.49279,4.00856 0.28957,4.47236 -5.00769,11.42858 -12.708243,16.6881 -17.992543,33.31754 -17.847343,56.16474 0.16917,26.61999 7.05606,51.27412 19.313743,69.14067 13.87678,20.22649 42.86542,35.38306 75.93032,39.69979 10.43683,1.36256 11.12362,1.59092 11.12362,3.69865 0,1.03163 -1.61625,3.80093 -3.59167,6.15401 -5.61446,6.68781 -11.0369,19.4078 -11.0369,25.89042 0,1.07466 -1.66048,2.19216 -5.25714,3.53806 -7.94161,2.97182 -14.20975,3.91759 -26.28572,3.96615 -9.35529,0.0376 -11.75582,-0.26521 -16.29643,-2.05576 -8.90321,-3.51089 -15.76051,-9.46384 -22.7461,-19.74627 -11.189993,-16.47112 -23.772103,-25.89868 -35.768373,-26.80066 -8.0681,-0.60663 -8.99671,1.68887 -2.62127,6.47966 11.16452,8.3895 13.39981,10.40946 17.20938,15.55153 2.31598,3.12606 7.04938,11.58932 10.51865,18.80724 5.184353,10.78619 7.202493,13.99701 11.331463,18.02818 12.61643,12.31758 31.77661,16.11212 63.74411,12.62409 l 5.25715,-0.57362 v 25.34647 c 0,21.56536 -0.22298,25.81636 -1.49472,28.49635 -2.05468,4.32991 -5.39365,5.82389 -12.85988,5.75397 -5.07506,-0.0475 -8.06391,-0.78154 -16.27398,-3.99659 z"
       id="path1" />
  </g>
</svg>
