<?xml version="1.0" encoding="UTF-8" standalone="no"?>
<!-- Created with Inkscape (http://www.inkscape.org/) -->

<svg
   version="1.1"
   id="svg1"
   width="642.66669"
   height="642.66669"
   viewBox="0 0 642.66669 642.66669"
   sodipodi:docname="linkedin-icon-white.svg"
   inkscape:version="1.3.2 (091e20e, 2023-11-25, custom)"
   xmlns:inkscape="http://www.inkscape.org/namespaces/inkscape"
   xmlns:sodipodi="http://sodipodi.sourceforge.net/DTD/sodipodi-0.dtd"
   xmlns="http://www.w3.org/2000/svg"
   xmlns:svg="http://www.w3.org/2000/svg">
  <defs
     id="defs1" />
  <sodipodi:namedview
     id="namedview1"
     pagecolor="#ffffff"
     bordercolor="#000000"
     borderopacity="0.25"
     inkscape:showpageshadow="2"
     inkscape:pageopacity="0.0"
     inkscape:pagecheckerboard="true"
     inkscape:deskcolor="#d1d1d1"
     inkscape:zoom="0.64970935"
     inkscape:cx="-514.07603"
     inkscape:cy="374.78297"
     inkscape:window-width="3440"
     inkscape:window-height="1377"
     inkscape:window-x="-8"
     inkscape:window-y="-8"
     inkscape:window-maximized="1"
     inkscape:current-layer="g1" />
  <g
     inkscape:groupmode="layer"
     inkscape:label="Image"
     id="g1">
    <g
       id="g2"
       transform="translate(-1.2348996,0.9217009)">
      <path
         style="fill:#fefefe"
         d="M 295.33334,633.86469 C 256.96037,630.02846 218.29466,619.09701 184.66667,602.57737 151.25799,586.16545 125.6443,567.71468 99.653927,541.33862 80.774115,522.17863 74.7089,514.8855 61.80959,495.83262 36.793344,458.88246 21.036678,419.70724 12.360099,372.88817 9.1746146,355.6992 8.8571422,350.94134 8.8310888,320.00001 8.8061055,290.32937 9.1885163,283.87778 11.834299,269.33334 18.170746,234.50054 25.554038,211.76452 40.62791,180.66667 69.843512,120.39401 121.93196,68.067675 181.97408,38.674982 221.08075,19.530919 254.58006,9.9829222 295.09758,6.4324398 c 46.21883,-4.0500792 97.26195,3.1274395 140.90243,19.8132482 26.47071,10.120996 64.26769,32.015456 84.93874,49.202021 12.48237,10.378231 37.71772,35.798461 46.9798,47.323961 26.89202,33.46378 48.66082,77.06439 59.86087,119.895 6.9109,26.42833 8.78929,42.98923 8.77139,77.33334 -0.0179,34.30839 -1.61743,48.39796 -8.70376,76.66667 -10.63869,42.43974 -31.25279,84.08744 -59.04843,119.29848 -9.79071,12.40271 -36.93969,39.64888 -49.46527,49.64237 -34.02771,27.14887 -78.74841,49.35903 -120,59.59698 -25.02528,6.21086 -41.88202,8.29859 -70.66667,8.75216 -15.4,0.24266 -30.4,0.20127 -33.33334,-0.092 z m -64.99309,-267.53135 0.34024,-123.66667 h -42.65987 -42.65987 l -0.34704,123.33346 c -0.22872,81.28429 0.10755,123.52814 0.98629,123.90449 0.73334,0.31407 19.93334,0.46402 42.66667,0.33322 l 41.33334,-0.23782 z m 121.23749,123.2892 c 1.17543,-0.74747 1.6854,-19.93433 2,-75.24732 0.30989,-54.48434 0.83812,-74.65958 1.98474,-75.80542 0.85937,-0.85877 1.26848,-2.32755 0.90915,-3.26396 -0.92157,-2.40156 5.73797,-15.11748 10.69914,-20.42924 6.34083,-6.78892 16.7979,-10.97746 28.742,-11.51248 10.4196,-0.46673 22.95545,1.90719 23.82355,4.51148 0.2703,0.8109 1.00067,1.15965 1.62304,0.775 1.76078,-1.08822 10.5671,8.66117 14.09463,15.60404 6.28382,12.36778 7.06481,22.86943 7.16519,96.34735 0.0715,52.3049 0.47106,68.17845 1.73682,68.99205 0.90421,0.58121 17.24401,0.91032 36.31068,0.73136 l 34.66667,-0.32538 -0.0352,-86.00001 c -0.0348,-84.87583 -0.075,-86.16558 -3.07619,-98.66667 -6.6201,-27.57503 -16.76485,-42.27349 -36.2219,-52.48092 -9.09034,-4.76891 -24.17462,-9.11908 -31.62056,-9.11908 -2.41278,0 -4.62771,-0.39 -4.92207,-0.86667 -0.95125,-1.54042 -37.20557,0.91301 -45.45738,3.07622 -10.02698,2.62858 -25.3833,10.18711 -30.74194,15.13148 -2.2414,2.06813 -5.76261,5.97245 -7.82492,8.67627 -2.0623,2.70382 -4.27843,4.91604 -4.92472,4.91604 -0.6463,0 -1.17509,-7.2 -1.17509,-16.00001 v -16 h -34 -34 V 365.8889 c 0,97.33022 0.35021,123.36354 1.66667,123.89474 2.69707,1.08829 66.85001,0.93759 68.57773,-0.1611 z M 207.30724,199.73737 c 9.57455,-4.42741 18.70257,-15.28291 21.77176,-25.89206 3.19297,-11.03697 1.38115,-26.22068 -4.0784,-34.17864 C 223.61707,137.65 222.87494,136 223.35142,136 c 2.10489,0 -13.65934,-12.1798 -17.61606,-13.61057 -2.42111,-0.87549 -4.40202,-1.92126 -4.40202,-2.32394 0,-1.67169 -24.99908,-1.73308 -26.66667,-0.0655 -0.36666,0.36667 -2.76666,1.65421 -5.33333,2.86121 -7.44647,3.50175 -15.81245,11.54582 -19.71357,18.95499 -3.18652,6.05198 -3.60695,8.3269 -3.60695,19.51714 0,11.15236 0.42381,13.46367 3.54506,19.33333 11.31908,21.2861 35.61065,29.30795 57.74936,19.0707 z"
         id="path3" />
      <path
         style="fill:#fcfcfc"
         d="m 167.00001,489.66922 c 11.55,-0.22197 30.45,-0.22197 42,0 11.55,0.22197 2.1,0.40358 -21,0.40358 -23.1,0 -32.55001,-0.18161 -21,-0.40358 z m 133.33333,10e-4 c 9.35,-0.2292 24.65,-0.2292 34,0 9.35,0.2292 1.7,0.41673 -17,0.41673 -18.7,0 -26.35,-0.18753 -17,-0.41673 z m 162.00001,-2.5e-4 c 9.71666,-0.22781 25.61667,-0.22781 35.33333,0 9.71667,0.22782 1.76667,0.41421 -17.66666,0.41421 -19.43334,0 -27.38334,-0.18639 -17.66667,-0.41421 z"
         id="path2" />
    </g>
  </g>
</svg>
